# xmcd CD database file
#
# Track frame offsets:
#	182
#	19305
#	36742
#	64085
#	88227
#	102905
#	114840
#	133717
#	148605
#
# Disc length: 2143 seconds
#
# Revision: 1
# Processed by: cddbd v1.5.2PL0 Copyright (c) Steve Scherf et al.
# Submitted via: CDex 1.51
#
DISCID=81085d09
DTITLE=Roland and Bluesworkshop - Good as bad can be
DYEAR=1989
DGENRE=Blues
TTITLE0=Good as bad can be
TTITLE1=7th son
TTITLE2=Low down Santa Fé
TTITLE3=Louisiana woman
TTITLE4=I'll give all i've got
TTITLE5=Wild Emma's dance
TTITLE6=Ain't gonna be your slave
TTITLE7=Honey what's wrong
TTITLE8=Boats and trains and plains
EXTD=YEAR: 1989
EXTT0=
EXTT1=
EXTT2=
EXTT3=
EXTT4=
EXTT5=
EXTT6=
EXTT7=
EXTT8=
PLAYORDER=
